<?xml version="1.0" encoding="UTF-8"?>
<!-- Created with Grafika (https://www.grafika.cc/) -->
<svg version="1.0" xmlns="http://www.w3.org/2000/svg" xmlns:svg="http://www.w3.org/2000/svg" width="470" height="470" viewBox="-234.506744 -234.506744 469.013489 469.013489" preserveAspectRatio="xMinYMin meet">
	<g transform="matrix(0.458021, 0.000000, 0.000000, 0.458021, 0.000015, 0.000000)">
		<rect x="-512.0" y="-512.0" width="1024.0" height="1024.0" rx="174.66453552246094" ry="174.66453552246094" style="fill:#FFFFFF;" />
		<g transform="matrix(34.221851, 0.000000, 0.000000, 34.221851, -0.000366, 0.000549)">
			<path d="M12.0,1.25 C11.395000457763672,1.25 10.838000297546387,1.399999976158142 10.229000091552734,1.6519999504089355 C9.640000343322754,1.8960000276565552 8.956000328063965,2.255000114440918 8.104999542236328,2.702000141143799 L6.0370001792907715,3.7870001792907715 C4.992000102996826,4.335000038146973 4.1570000648498535,4.77400016784668 3.509999990463257,5.205000400543213 C2.8420000076293945,5.652000427246094 2.3259999752044678,6.122000694274902 1.9510000944137573,6.759000301361084 C1.5769999027252197,7.394000053405762 1.4089999198913574,8.082000732421875 1.3279999494552612,8.9010009765625 C1.25,9.696001052856445 1.25,10.673001289367676 1.25,11.903000831604004 L1.25,12.097001075744629 C1.25,13.327001571655273 1.25,14.304000854492188 1.3279999494552612,15.099000930786133 C1.4089999198913574,15.919000625610352 1.5779999494552612,16.606000900268555 1.9510000944137573,17.24100112915039 C2.3259999752044678,17.878000259399414 2.8410003185272217,18.34800148010254 3.510999917984009,18.795001983642578 C4.156000137329102,19.226001739501953 4.992000102996826,19.66500473022461 6.036999702453613,20.213001251220703 L8.104999542236328,21.29800033569336 C8.955999374389648,21.7450008392334 9.639999389648438,22.104000091552734 10.229000091552734,22.347999572753906 C10.83899974822998,22.600000381469727 11.395000457763672,22.75 12.0,22.75 C12.604999542236328,22.75 13.161999702453613,22.600000381469727 13.770999908447266,22.347999572753906 C14.359999656677246,22.104000091552734 15.044000625610352,21.744998931884766 15.895000457763672,21.29800033569336 L17.963001251220703,20.21400260925293 C19.00800132751465,19.665000915527344 19.843000411987305,19.22599983215332 20.489002227783203,18.795000076293945 C21.15900230407715,18.347999572753906 21.67400360107422,17.878000259399414 22.04900360107422,17.240999221801758 C22.423002243041992,16.605998992919922 22.591001510620117,15.917999267578125 22.672000885009766,15.0989990234375 C22.75,14.303998947143555 22.75,13.326998710632324 22.75,12.097997665405273 L22.75,11.901998519897461 C22.75,10.672998428344727 22.75,9.695998191833496 22.672000885009766,8.90099811553955 C22.591001510620117,8.080998420715332 22.422000885009766,7.393998146057129 22.04900360107422,6.758997917175293 C21.67400360107422,6.121998310089111 21.15900230407715,5.651998043060303 20.489002227783203,5.204998016357422 C19.8439998626709,4.773997783660889 19.00800132751465,4.33499813079834 17.963001251220703,3.7869977951049805 L15.895001411437988,2.701997756958008 C15.044001579284668,2.254997730255127 14.360001564025879,1.8959978818893433 13.771001815795898,1.6519978046417236 C13.161002159118652,1.3999978303909302 12.605001449584961,1.249997854232788 12.000001907348633,1.249997854232788M8.769999504089355,4.046000003814697 C9.659998893737793,3.5789999961853027 10.2839994430542,3.253000020980835 10.80199909210205,3.0390002727508545 C11.305999755859375,2.8299999237060547 11.660999298095703,2.75 12.0,2.75 C12.34000015258789,2.75 12.694000244140625,2.8299999237060547 13.197999954223633,3.0390002727508545 C13.715999603271484,3.253000020980835 14.338998794555664,3.5789999961853027 15.22900104522705,4.046000003814697 L17.229000091552734,5.095999717712402 C18.319000244140625,5.666999816894531 19.083999633789062,6.0699992179870605 19.656999588012695,6.451999664306641 C19.93899917602539,6.640999794006348 20.15999984741211,6.815999507904053 20.34000015258789,6.991999626159668 L17.009000778198242,8.656999588012695 L8.509000778198242,4.182999610900879 L8.769999504089355,4.046000003814697 L8.769999504089355,4.046000003814697 ZM6.944999694824219,5.004000186920166 L6.770999908447266,5.0960001945495605 C5.680999755859375,5.6670002937316895 4.915999889373779,6.070000171661377 4.343999862670898,6.452000141143799 C4.100114822387695,6.610479354858398 3.8714675903320312,6.791254997253418 3.6609997749328613,6.992000102996826 L12.0,11.16200065612793 L15.357000350952148,9.482000350952148 L7.151000499725342,5.164000034332275 C7.074043273925781,5.122295379638672 7.004451751708984,5.068243980407715 6.945000171661377,5.004000186920166M2.938000202178955,8.307000160217285 C2.888000249862671,8.520999908447266 2.8490002155303955,8.763999938964844 2.821000099182129,9.04699993133545 C2.751000165939331,9.76099967956543 2.75,10.664000511169434 2.75,11.940999984741211 L2.75,12.057999610900879 C2.75,13.335999488830566 2.75,14.23900032043457 2.821000099182129,14.95199966430664 C2.890000104904175,15.64900016784668 3.0210001468658447,16.100000381469727 3.244000196456909,16.479999542236328 C3.466000556945801,16.85700035095215 3.7870001792907715,17.17599868774414 4.344000339508057,17.54800033569336 C4.9160003662109375,17.93000030517578 5.681000709533691,18.33300018310547 6.771000385284424,18.904003143310547 L8.770999908447266,19.95400047302246 C9.66100025177002,20.421001434326172 10.284000396728516,20.746999740600586 10.80199909210205,20.961000442504883 Q11.046000480651855,21.062000274658203 11.25,21.126001358032227 L11.25,12.463001251220703 L2.938000202178955,8.307000160217285 L2.938000202178955,8.307000160217285 ZM12.75,21.125001907348633 Q12.954000473022461,21.062000274658203 13.197999954223633,20.961000442504883 C13.715999603271484,20.746999740600586 14.338998794555664,20.421001434326172 15.22900104522705,19.95400047302246 L17.229000091552734,18.904003143310547 C18.319000244140625,18.332000732421875 19.083999633789062,17.93000030517578 19.656999588012695,17.54800033569336 C20.21299934387207,17.176000595092773 20.534000396728516,16.85700035095215 20.756999969482422,16.479999542236328 C20.979999542236328,16.100000381469727 21.110000610351562,15.649999618530273 21.179000854492188,14.95199966430664 C21.249000549316406,14.23900032043457 21.25,13.335999488830566 21.25,12.059000015258789 L21.25,11.942001342773438 C21.25,10.664000511169434 21.25,9.761000633239746 21.179000854492188,9.04800033569336 C21.155452728271484,8.799138069152832 21.116378784179688,8.551989555358887 21.062000274658203,8.308000564575195 L17.75,9.963000297546387 L17.75,13.0 C17.748151779174805,13.412903785705566 17.412906646728516,13.746651649475098 17.0,13.746651649475098 C16.587093353271484,13.746651649475098 16.251848220825195,13.412903785705566 16.25,13.0 L16.25,10.71399974822998 L12.75,12.463998794555664 L12.75,21.125001907348633 L12.75,21.125001907348633 Z" fill-rule="evenodd" transform="matrix(1.000000, 0.000000, 0.000000, 1.000000, -12.000000, -12.000000)" style="fill:#000000;" />
		</g>
	</g>
	<g transform="matrix(0.916042, 0.000000, 0.000000, 0.916042, 0.000000, 0.000000)" />
</svg>
