<?xml version="1.0" encoding="UTF-8"?>
<!-- Created with Grafika (https://www.grafika.cc/) -->
<svg version="1.0" xmlns="http://www.w3.org/2000/svg" xmlns:svg="http://www.w3.org/2000/svg" width="512" height="512" viewBox="-256.000000 -256.000000 512.000000 512.000000" preserveAspectRatio="xMinYMin meet">
	<ellipse cx="0" cy="0" rx="100.0" ry="100.0" transform="matrix(2.531750, 0.000000, 0.000000, 2.531750, 0.000000, 0.000000)" style="fill:#E5E5E5;stroke:#FFFFFF;stroke-linecap:round;stroke-linejoin:miter;stroke-miterlimit:11.473713245669856;stroke-width:0.0;" />
	<g transform="matrix(16.842955, 0.000000, 0.000000, 16.842955, 0.000000, 0.000000)">
		<path d="M12.670000076293945,13.670000076293945 C12.199999809265137,14.130000114440918 11.630000114440918,14.5 11.0,14.729999542236328 L11.0,23.0 L8.0,23.0 L8.0,21.0 L5.0,21.0 L5.0,18.0 L8.0,18.0 L8.0,14.720000267028809 C6.260000228881836,14.100000381469727 5.0,12.460000038146973 5.0,10.5 C5.0,8.0 7.0,6.0 9.5,6.0 L9.600000381469727,6.0 C9.130000114440918,6.949999809265137 8.920000076293945,8.0 9.030000686645508,9.079999923706055 C8.440000534057617,9.279999732971191 8.000000953674316,9.84000015258789 8.000000953674316,10.5 C8.000000953674316,11.329999923706055 8.670001029968262,12.0 9.500000953674316,12.0 C9.730000495910645,12.0 9.950000762939453,11.9399995803833 10.15000057220459,11.850000381469727 C10.790000915527344,12.690000534057617 11.670000076293945,13.320000648498535 12.670000076293945,13.670000076293945M20.729999542236328,19.440000534057617 L17.969999313354492,20.600000381469727 L17.189998626708984,18.760000228881836 L14.429998397827148,19.93000030517578 L13.259998321533203,17.15999984741211 L16.029998779296875,16.0 L14.759998321533203,13.0 C12.909997940063477,13.079999923706055 11.10999870300293,12.050000190734863 10.349998474121094,10.25 C9.389998435974121,7.960000038146973 10.469998359680176,5.320000171661377 12.759998321533203,4.349999904632568 C12.999998092651367,4.25 13.259998321533203,4.179999828338623 13.499998092651367,4.119999885559082 C12.84000015258789,2.869999885559082 11.5,2.0 10.0,2.0 C7.789999961853027,2.0 6.0,3.7899999618530273 6.0,6.0 L6.0,6.239999771118164 C5.699999809265137,6.5 5.400000095367432,6.819999694824219 5.150000095367432,7.149999618530273 C5.059999942779541,6.779999732971191 5.0,6.400000095367432 5.0,6.0 C5.0,3.240000009536743 7.239999771118164,1.0 10.0,1.0 C12.760000228881836,1.0 15.0,3.240000009536743 15.0,6.0 C15.0,7.420000076293945 14.399999618530273,8.670000076293945 13.449999809265137,9.569999694824219 C13.869999885559082,10.0 14.5,10.130000114440918 15.079999923706055,9.880000114440918 C15.850000381469727,9.5600004196167 16.200000762939453,8.680000305175781 15.880000114440918,7.920000076293945 C15.846457481384277,7.826882839202881 15.799276351928711,7.739261150360107 15.739999771118164,7.659999847412109 C15.90000057220459,7.12999963760376 16.0,6.579999923706055 16.0,6.0 C16.0,5.369999885559082 15.899999618530273,4.760000228881836 15.720000267028809,4.190000057220459 C17.0,4.550000190734863 18.100000381469727,5.440000057220459 18.649999618530273,6.760000228881836 C19.40999984741211,8.5600004196167 18.889999389648438,10.569999694824219 17.5,11.809999465942383 L20.729999542236328,19.440000534057617 ZM13.0,8.600000381469727 C13.369999885559082,8.190000534057617 13.649999618530273,7.710000514984131 13.819999694824219,7.180000305175781 C13.279999732971191,7.450000286102295 12.969999313354492,8.0 13.0,8.600000381469727" transform="matrix(1.000000, 0.000000, 0.000000, 1.000000, -12.000000, -12.000000)" style="fill:#000000;" />
	</g>
</svg>
