<?xml version="1.0" encoding="UTF-8"?>
<!-- Created with Grafika (https://www.grafika.cc/) -->
<svg version="1.0" xmlns="http://www.w3.org/2000/svg" xmlns:svg="http://www.w3.org/2000/svg" width="166" height="32" viewBox="-83.000000 -17.763336 166.000000 32.000000" preserveAspectRatio="xMinYMin meet">
	<g transform="matrix(1.000000, 0.000000, 0.000000, 1.000000, 0.000000, -1.763336)">
		<rect x="-83.0" y="-16.0" width="166.0" height="32.0" rx="6.0" ry="6.0" style="fill:#0F1418;" />
		<rect x="-16.0" y="-16.0" width="32.0" height="32.0" rx="6.0" ry="6.0" transform="matrix(1.000000, 0.000000, 0.000000, 1.000000, -67.000000, 0.000000)" style="fill:#4CD489;" />
		<path d="M-60.763858795166016,-5.1951751708984375 C-64.11763763427734,-5.1951751708984375 -66.16877746582031,-2.8256139755249023 -66.16877746582031,0.987187385559082 C-66.16877746582031,4.7793121337890625 -64.11763763427734,7.186090469360352 -60.763858795166016,7.186090469360352 C-57.4266242980957,7.186090469360352 -55.37961959838867,4.7793121337890625 -55.37961959838867,0.987187385559082 C-55.37961959838867,-2.8256139755249023 -57.4266242980957,-5.1951751708984375 -60.763858795166016,-5.1951751708984375 ZM-60.763858795166016,-2.738771438598633 C-59.12211990356445,-2.738771438598633 -58.13790512084961,-1.3865089416503906 -58.13790512084961,0.987187385559082 C-58.13790512084961,3.307124137878418 -59.12211990356445,4.74622917175293 -60.763858795166016,4.74622917175293 C-62.40559768676758,4.74622917175293 -63.40635299682617,3.307124137878418 -63.40635299682617,0.987187385559082 C-63.40635299682617,-1.3865089416503906 -62.40559768676758,-2.738771438598633 -60.763858795166016,-2.738771438598633 ZM-52.32026672363281,-1.1631994247436523 C-52.374027252197266,-1.2665834426879883 -52.45673370361328,-1.3162078857421875 -52.57666015625,-1.3162078857421875 L-53.775917053222656,-1.3162078857421875 C-53.912384033203125,-1.3162078857421875 -53.99922180175781,-1.2335004806518555 -53.99922180175781,-1.0970344543457031 L-53.99922180175781,10.490243911743164 C-53.99922180175781,10.626710891723633 -53.912384033203125,10.709417343139648 -53.775917053222656,10.709417343139648 L-51.52627944946289,10.709417343139648 C-51.38981246948242,10.709417343139648 -51.30297088623047,10.626710891723633 -51.30297088623047,10.490243911743164 L-51.30297088623047,6.813909530639648 L-50.897705078125,6.98345947265625 C-50.57514572143555,7.119924545288086 -50.25672149658203,7.186090469360352 -49.764617919921875,7.186090469360352 C-47.32475280761719,7.186090469360352 -45.83189010620117,5.511270523071289 -45.83189010620117,2.8315582275390625 C-45.83189010620117,0.17252159118652344 -47.221370697021484,-1.5022993087768555 -49.47513961791992,-1.5022993087768555 C-50.219505310058594,-1.5022993087768555 -50.9307861328125,-1.3492908477783203 -51.642066955566406,-0.7413930892944336 C-51.79507827758789,-0.6049261093139648 -51.93154525756836,-0.5553016662597656 -52.06800842285156,-0.7579345703125 L-52.32026672363281,-1.1631994247436523 ZM-51.340187072753906,4.444347381591797 L-51.340187072753906,2.5627593994140625 C-51.340187072753906,1.5289192199707031 -50.848079681396484,0.8838033676147461 -49.983787536621094,0.8838033676147461 C-49.01611328125,0.8838033676147461 -48.45783996582031,1.6116266250610352 -48.45783996582031,2.8315582275390625 C-48.45783996582031,4.068029403686523 -48.9830322265625,4.816530227661133 -49.967247009277344,4.816530227661133 C-50.30634689331055,4.816530227661133 -50.711612701416016,4.74622917175293 -51.00109100341797,4.593219757080078 L-51.340187072753906,4.444347381591797 ZM-38.39091873168945,6.747743606567383 C-38.25858688354492,6.7105255126953125 -38.18828582763672,6.627817153930664 -38.221370697021484,6.474809646606445 L-38.696937561035156,4.713146209716797 C-38.730018615722656,4.576679229736328 -38.816864013671875,4.527055740356445 -38.94919204711914,4.560138702392578 L-39.96649169921875,4.7793121337890625 C-40.20634460449219,4.833072662353516 -40.694313049316406,4.899236679077148 -41.049957275390625,4.899236679077148 C-41.848079681396484,4.899236679077148 -42.2698860168457,4.646980285644531 -42.592445373535156,4.051488876342773 L-40.61160659790039,3.766148567199707 C-38.66385269165039,3.493215560913086 -37.71272277832031,2.7157669067382812 -37.71272277832031,1.3593692779541016 C-37.71272277832031,-0.38575172424316406 -39.019493103027344,-1.5022993087768555 -41.13679885864258,-1.5022993087768555 C-43.795833587646484,-1.5022993087768555 -45.33832550048828,0.17252159118652344 -45.33832550048828,2.8480987548828125 C-45.33832550048828,5.511270523071289 -43.82891845703125,7.186090469360352 -41.049957275390625,7.186090469360352 C-40.61160659790039,7.186090469360352 -40.03679275512695,7.136466979980469 -39.44129943847656,7.0 L-38.39091873168945,6.747743606567383 ZM-42.761993408203125,2.3270435333251953 C-42.712371826171875,1.2559852600097656 -41.9680061340332,0.7845544815063477 -41.236045837402344,0.7845544815063477 C-40.561981201171875,0.7845544815063477 -40.22288513183594,0.987187385559082 -40.22288513183594,1.3924522399902344 C-40.22288513183594,1.7646350860595703 -40.47513961791992,2.004486083984375 -41.00033187866211,2.054109573364258 L-42.761993408203125,2.3270435333251953 ZM-35.32026672363281,-1.1631994247436523 C-35.374027252197266,-1.2665834426879883 -35.45673370361328,-1.3162078857421875 -35.57666015625,-1.3162078857421875 L-36.77591323852539,-1.3162078857421875 C-36.91238021850586,-1.3162078857421875 -36.99922561645508,-1.2335004806518555 -36.99922561645508,-1.0970344543457031 L-36.99922561645508,6.780826568603516 C-36.99922561645508,6.917293548583984 -36.91238021850586,7.0 -36.77591323852539,7.0 L-34.52627944946289,7.0 C-34.38981246948242,7.0 -34.30297088623047,6.917293548583984 -34.30297088623047,6.780826568603516 L-34.30297088623047,2.6123828887939453 C-34.30297088623047,1.479294776916504 -33.848079681396484,0.8838033676147461 -33.03341293334961,0.8838033676147461 C-32.44205856323242,0.8838033676147461 -32.08641815185547,1.276662826538086 -32.08641815185547,1.9672679901123047 L-32.08641815185547,6.780826568603516 C-32.08641815185547,6.917293548583984 -31.99957275390625,7.0 -31.86724090576172,7.0 L-29.61347198486328,7.0 C-29.477005004882812,7.0 -29.394298553466797,6.917293548583984 -29.394298553466797,6.780826568603516 L-29.394298553466797,1.632303237915039 C-29.394298553466797,-0.35266876220703125 -30.614227294921875,-1.5022993087768555 -32.61160659790039,-1.5022993087768555 C-33.12025833129883,-1.5022993087768555 -33.897705078125,-1.3658323287963867 -34.575904846191406,-0.7910175323486328 C-34.82815933227539,-0.571843147277832 -34.93154525756836,-0.5553016662597656 -35.10109329223633,-0.8075590133666992 L-35.32026672363281,-1.1631994247436523 ZM-23.204479217529297,-5.501192092895508 C-24.151473999023438,-5.501192092895508 -24.709747314453125,-4.94291877746582 -24.709747314453125,-3.95870304107666 C-24.709747314453125,-2.995163917541504 -24.151473999023438,-2.399672508239746 -23.204479217529297,-2.399672508239746 C-22.236804962158203,-2.399672508239746 -21.695072174072266,-2.995163917541504 -21.695072174072266,-3.95870304107666 C-21.695072174072266,-4.94291877746582 -22.236804962158203,-5.501192092895508 -23.204479217529297,-5.501192092895508 ZM-21.64544677734375,-1.0970344543457031 C-21.64544677734375,-1.2335004806518555 -21.728153228759766,-1.3162078857421875 -21.864620208740234,-1.3162078857421875 L-25.201858520507812,-1.3162078857421875 C-25.338321685791016,-1.3162078857421875 -25.421031951904297,-1.2335004806518555 -25.421031951904297,-1.0970344543457031 L-25.421031951904297,0.8176374435424805 C-25.421031951904297,0.9541044235229492 -25.338321685791016,1.0368118286132812 -25.201858520507812,1.0368118286132812 L-24.321025848388672,1.0368118286132812 L-24.321025848388672,6.780826568603516 C-24.321025848388672,6.917293548583984 -24.23418426513672,7.0 -24.101852416992188,7.0 L-21.864620208740234,7.0 C-21.728153228759766,7.0 -21.64544677734375,6.917293548583984 -21.64544677734375,6.780826568603516 L-21.64544677734375,-1.0970344543457031 ZM-18.320266723632812,-1.1631994247436523 C-18.374027252197266,-1.2665834426879883 -18.45673370361328,-1.3162078857421875 -18.57666015625,-1.3162078857421875 L-19.77591323852539,-1.3162078857421875 C-19.91238021850586,-1.3162078857421875 -19.999225616455078,-1.2335004806518555 -19.999225616455078,-1.0970344543457031 L-19.999225616455078,6.780826568603516 C-19.999225616455078,6.917293548583984 -19.91238021850586,7.0 -19.77591323852539,7.0 L-17.52627944946289,7.0 C-17.389812469482422,7.0 -17.30297088623047,6.917293548583984 -17.30297088623047,6.780826568603516 L-17.30297088623047,2.6123828887939453 C-17.30297088623047,1.479294776916504 -16.848079681396484,0.8838033676147461 -16.03341293334961,0.8838033676147461 C-15.442058563232422,0.8838033676147461 -15.086418151855469,1.276662826538086 -15.086418151855469,1.9672679901123047 L-15.086418151855469,6.780826568603516 C-15.086418151855469,6.917293548583984 -14.99957275390625,7.0 -14.867240905761719,7.0 L-12.613471984863281,7.0 C-12.477005004882812,7.0 -12.394298553466797,6.917293548583984 -12.394298553466797,6.780826568603516 L-12.394298553466797,1.632303237915039 C-12.394298553466797,-0.35266876220703125 -13.614227294921875,-1.5022993087768555 -15.61160659790039,-1.5022993087768555 C-16.120258331298828,-1.5022993087768555 -16.897705078125,-1.3658323287963867 -17.575904846191406,-0.7910175323486328 C-17.82815933227539,-0.571843147277832 -17.93154525756836,-0.5553016662597656 -18.101093292236328,-0.8075590133666992 L-18.320266723632812,-1.1631994247436523 ZM-2.0194931030273438,0.20973968505859375 C-2.1394195556640625,0.20973968505859375 -2.2221298217773438,0.2759056091308594 -2.2552108764648438,0.3958301544189453 L-2.8134841918945312,2.360126495361328 C-2.8507003784179688,2.5131349563598633 -2.7804031372070312,2.6123828887939453 -2.6273880004882812,2.6123828887939453 L-0.8161087036132812,2.6123828887939453 L-0.8161087036132812,4.47743034362793 L-1.002197265625,4.527055740356445 C-1.4943008422851562,4.696605682373047 -2.085662841796875,4.74622917175293 -2.69769287109375,4.74622917175293 C-4.3890533447265625,4.74622917175293 -5.4063568115234375,3.340207099914551 -5.4063568115234375,1.0037288665771484 C-5.4063568115234375,-1.3492908477783203 -4.3890533447265625,-2.738771438598633 -2.69769287109375,-2.738771438598633 C-2.0194931030273438,-2.738771438598633 -1.5108413696289062,-2.6891469955444336 -0.9525680541992188,-2.503056526184082 L-0.13790130615234375,-2.246664047241211 C-0.00144195556640625,-2.1970396041870117 0.097808837890625,-2.246664047241211 0.130889892578125,-2.3831310272216797 L0.8256301879882812,-4.248177528381348 C0.87939453125,-4.384644508361816 0.8421707153320312,-4.467351913452148 0.6933059692382812,-4.516976356506348 L-0.187530517578125,-4.806451797485352 C-1.068359375,-5.075249671936035 -1.7630996704101562,-5.1951751708984375 -2.69769287109375,-5.1951751708984375 C-6.101093292236328,-5.1951751708984375 -8.168773651123047,-2.809072494506836 -8.168773651123047,1.0037288665771484 C-8.168773651123047,4.79998779296875 -6.101093292236328,7.186090469360352 -2.69769287109375,7.186090469360352 C-1.6638565063476562,7.186090469360352 -1.0352783203125,7.103384017944336 -0.170989990234375,6.830450057983398 L0.031646728515625,6.764284133911133 L1.6072158813476562,6.272176742553711 C1.7395477294921875,6.239093780517578 1.793304443359375,6.152252197265625 1.793304443359375,6.036460876464844 L1.793304443359375,0.4289131164550781 C1.793304443359375,0.2924461364746094 1.7064666748046875,0.20973968505859375 1.5741348266601562,0.20973968505859375 L-2.0194931030273438,0.20973968505859375 ZM4.795524597167969,-5.501192092895508 C3.8485260009765625,-5.501192092895508 3.290252685546875,-4.94291877746582 3.290252685546875,-3.95870304107666 C3.290252685546875,-2.995163917541504 3.8485260009765625,-2.399672508239746 4.795524597167969,-2.399672508239746 C5.7631988525390625,-2.399672508239746 6.304931640625,-2.995163917541504 6.304931640625,-3.95870304107666 C6.304931640625,-4.94291877746582 5.7631988525390625,-5.501192092895508 4.795524597167969,-5.501192092895508 ZM6.35455322265625,-1.0970344543457031 C6.35455322265625,-1.2335004806518555 6.271842956542969,-1.3162078857421875 6.1353759765625,-1.3162078857421875 L2.7981414794921875,-1.3162078857421875 C2.6616744995117188,-1.3162078857421875 2.5789718627929688,-1.2335004806518555 2.5789718627929688,-1.0970344543457031 L2.5789718627929688,0.8176374435424805 C2.5789718627929688,0.9541044235229492 2.6616744995117188,1.0368118286132812 2.7981414794921875,1.0368118286132812 L3.6789779663085938,1.0368118286132812 L3.6789779663085938,6.780826568603516 C3.6789779663085938,6.917293548583984 3.7658157348632812,7.0 3.8981475830078125,7.0 L6.1353759765625,7.0 C6.271842956542969,7.0 6.35455322265625,6.917293548583984 6.35455322265625,6.780826568603516 L6.35455322265625,-1.0970344543457031 ZM11.35455322265625,-1.3162078857421875 L11.35455322265625,-3.9752445220947266 C11.35455322265625,-4.144793510437012 11.255302429199219,-4.215095520019531 11.102294921875,-4.161334991455078 L8.865066528320312,-3.4169702529907227 C8.728599548339844,-3.36734676361084 8.678977966308594,-3.2805042266845703 8.678977966308594,-3.1647138595581055 L8.678977966308594,-1.3162078857421875 L7.7981414794921875,-1.3162078857421875 C7.661674499511719,-1.3162078857421875 7.578971862792969,-1.2335004806518555 7.578971862792969,-1.0970344543457031 L7.578971862792969,0.8176374435424805 C7.578971862792969,0.9541044235229492 7.661674499511719,1.0368118286132812 7.7981414794921875,1.0368118286132812 L8.678977966308594,1.0368118286132812 L8.678977966308594,4.121789932250977 C8.678977966308594,6.053003311157227 9.832740783691406,7.186090469360352 11.797035217285156,7.186090469360352 C12.305686950683594,7.186090469360352 12.847419738769531,7.049623489379883 13.252685546875,6.780826568603516 C13.356063842773438,6.7105255126953125 13.372611999511719,6.594734191894531 13.31884765625,6.474809646606445 L12.524856567382812,4.849613189697266 C12.458694458007812,4.713146209716797 12.355308532714844,4.696605682373047 12.218841552734375,4.74622917175293 C12.082374572753906,4.79998779296875 11.950042724609375,4.816530227661133 11.797035217285156,4.816530227661133 C11.524101257324219,4.816530227661133 11.35455322265625,4.560138702392578 11.35455322265625,4.121789932250977 L11.35455322265625,1.0368118286132812 L13.26922607421875,1.0368118286132812 C13.405693054199219,1.0368118286132812 13.488395690917969,0.9541044235229492 13.488395690917969,0.8176374435424805 L13.488395690917969,-1.0970344543457031 C13.488395690917969,-1.2335004806518555 13.405693054199219,-1.3162078857421875 13.26922607421875,-1.3162078857421875 L11.35455322265625,-1.3162078857421875 ZM15.266563415527344,1.4255352020263672 C15.130096435546875,1.4255352020263672 15.043251037597656,1.5123777389526367 15.043251037597656,1.6488447189331055 L15.043251037597656,3.5428390502929688 C15.043251037597656,3.6793060302734375 15.130096435546875,3.766148567199707 15.266563415527344,3.766148567199707 L19.9229736328125,3.766148567199707 C20.05944061279297,3.766148567199707 20.14215087890625,3.6793060302734375 20.14215087890625,3.5428390502929688 L20.14215087890625,1.6488447189331055 C20.14215087890625,1.5123777389526367 20.05944061279297,1.4255352020263672 19.9229736328125,1.4255352020263672 L15.266563415527344,1.4255352020263672 ZM24.75605010986328,-4.789910316467285 C24.75605010986328,-4.926377296447754 24.669204711914062,-5.0090837478637695 24.53687286376953,-5.0090837478637695 L22.229347229003906,-5.0090837478637695 C22.097015380859375,-5.0090837478637695 22.010169982910156,-4.926377296447754 22.010169982910156,-4.789910316467285 L22.010169982910156,6.780826568603516 C22.010169982910156,6.917293548583984 22.097015380859375,7.0 22.229347229003906,7.0 L24.53687286376953,7.0 C24.669204711914062,7.0 24.75605010986328,6.917293548583984 24.75605010986328,6.780826568603516 L24.75605010986328,-4.789910316467285 ZM28.519577026367188,-1.1631994247436523 C28.46581268310547,-1.2665834426879883 28.38311004638672,-1.3162078857421875 28.26318359375,-1.3162078857421875 L27.063926696777344,-1.3162078857421875 C26.927459716796875,-1.3162078857421875 26.840621948242188,-1.2335004806518555 26.840621948242188,-1.0970344543457031 L26.840621948242188,6.780826568603516 C26.840621948242188,6.917293548583984 26.927459716796875,7.0 27.063926696777344,7.0 L29.313568115234375,7.0 C29.450035095214844,7.0 29.53687286376953,6.917293548583984 29.53687286376953,6.780826568603516 L29.53687286376953,2.6123828887939453 C29.53687286376953,1.479294776916504 29.99176025390625,0.8838033676147461 30.806427001953125,0.8838033676147461 C31.397789001464844,0.8838033676147461 31.75342559814453,1.276662826538086 31.75342559814453,1.9672679901123047 L31.75342559814453,6.780826568603516 C31.75342559814453,6.917293548583984 31.84027099609375,7.0 31.97260284423828,7.0 L34.22637176513672,7.0 C34.36283874511719,7.0 34.44554901123047,6.917293548583984 34.44554901123047,6.780826568603516 L34.44554901123047,1.632303237915039 C34.44554901123047,-0.35266876220703125 33.225616455078125,-1.5022993087768555 31.228233337402344,-1.5022993087768555 C30.719589233398438,-1.5022993087768555 29.942138671875,-1.3658323287963867 29.263938903808594,-0.7910175323486328 C29.011680603027344,-0.571843147277832 28.908302307128906,-0.5553016662597656 28.738746643066406,-0.8075590133666992 L28.519577026367188,-1.1631994247436523 ZM37.26318359375,8.170307159423828 C37.13085174560547,8.133089065551758 37.04400634765625,8.186847686767578 36.994384765625,8.31917953491211 L36.43611145019531,10.167686462402344 C36.382354736328125,10.320693969726562 36.43611145019531,10.403400421142578 36.58911895751953,10.457160949707031 L37.51957702636719,10.709417343139648 C38.011680603027344,10.845884323120117 38.68574523925781,10.8955078125 39.26469421386719,10.8955078125 C42.022979736328125,10.8955078125 43.668853759765625,9.406780242919922 43.668853759765625,6.627817153930664 L43.668853759765625,-0.1831188201904297 C43.668853759765625,-0.31545066833496094 43.61509704589844,-0.38575172424316406 43.499305725097656,-0.4353771209716797 L41.721099853515625,-1.146657943725586 C41.00981903076172,-1.4361333847045898 40.277862548828125,-1.5022993087768555 39.669960021972656,-1.5022993087768555 C37.07709503173828,-1.5022993087768555 35.50151824951172,0.12289714813232422 35.50151824951172,2.9018592834472656 C35.50151824951172,5.490592956542969 36.89099884033203,7.186090469360352 39.26469421386719,7.186090469360352 C39.975982666015625,7.186090469360352 40.73688507080078,7.033082962036133 41.29515838623047,6.611276626586914 C41.49779510498047,6.474809646606445 41.568092346191406,6.578193664550781 41.568092346191406,6.67744255065918 C41.568092346191406,6.813909530639648 41.535011291503906,7.049623489379883 41.46470642089844,7.202632904052734 C40.98914337158203,8.372940063476562 39.822967529296875,8.509407043457031 39.144775390625,8.509407043457031 C38.77259063720703,8.509407043457031 38.280479431152344,8.455646514892578 37.924842834472656,8.35639762878418 L37.26318359375,8.170307159423828 ZM41.02635955810547,1.2394447326660156 L41.02635955810547,3.1044912338256836 C41.02635955810547,4.340963363647461 40.48462677001953,4.816530227661133 39.58312225341797,4.816530227661133 C38.65266418457031,4.816530227661133 38.127471923828125,4.034946441650391 38.127471923828125,2.8480987548828125 C38.127471923828125,1.6116266250610352 38.68574523925781,0.8838033676147461 39.653419494628906,0.8838033676147461 C39.975982666015625,0.8838033676147461 40.381248474121094,0.9541044235229492 40.68726348876953,1.086435317993164 L41.02635955810547,1.2394447326660156 ZM51.44892120361328,6.747743606567383 C51.58125305175781,6.7105255126953125 51.65155792236328,6.627817153930664 51.61847686767578,6.474809646606445 L51.142906188964844,4.713146209716797 C51.109825134277344,4.576679229736328 51.022979736328125,4.527055740356445 50.890647888183594,4.560138702392578 L49.87335205078125,4.7793121337890625 C49.63349914550781,4.833072662353516 49.145530700683594,4.899236679077148 48.789886474609375,4.899236679077148 C47.99176025390625,4.899236679077148 47.56995391845703,4.646980285644531 47.247398376464844,4.051488876342773 L49.228233337402344,3.766148567199707 C51.175987243652344,3.493215560913086 52.12712097167969,2.7157669067382812 52.12712097167969,1.3593692779541016 C52.12712097167969,-0.38575172424316406 50.820350646972656,-1.5022993087768555 48.70304870605469,-1.5022993087768555 C46.04400634765625,-1.5022993087768555 44.50151824951172,0.17252159118652344 44.50151824951172,2.8480987548828125 C44.50151824951172,5.511270523071289 46.01092529296875,7.186090469360352 48.789886474609375,7.186090469360352 C49.228233337402344,7.186090469360352 49.80304718017578,7.136466979980469 50.39854431152344,7.0 L51.44892120361328,6.747743606567383 ZM47.077850341796875,2.3270435333251953 C47.127471923828125,1.2559852600097656 47.87184143066406,0.7845544815063477 48.603797912597656,0.7845544815063477 C49.277862548828125,0.7845544815063477 49.61695861816406,0.987187385559082 49.61695861816406,1.3924522399902344 C49.61695861816406,1.7646350860595703 49.36470031738281,2.004486083984375 48.839515686035156,2.054109573364258 L47.077850341796875,2.3270435333251953 ZM56.46733093261719,3.952239990234375 C56.806427001953125,4.034946441650391 56.959434509277344,4.237579345703125 56.959434509277344,4.46088981628418 C56.959434509277344,4.74622917175293 56.71958923339844,4.915779113769531 56.29778289794922,4.915779113769531 C55.9752197265625,4.915779113769531 54.941383361816406,4.833072662353516 54.21356201171875,4.646980285644531 L53.41957092285156,4.444347381591797 C53.283103942871094,4.407129287719727 53.196258544921875,4.46088981628418 53.163177490234375,4.593219757080078 L52.65452575683594,6.392101287841797 C52.60490417480469,6.524433135986328 52.67106628417969,6.627817153930664 52.807533264160156,6.660900115966797 L53.70491027832031,6.880075454711914 C54.656044006347656,7.119924545288086 55.55341339111328,7.186090469360352 56.29778289794922,7.186090469360352 C58.365455627441406,7.186090469360352 59.581260681152344,6.168792724609375 59.581260681152344,4.46088981628418 C59.581260681152344,3.1375741958618164 58.853431701660156,2.3766679763793945 57.228233337402344,1.9879436492919922 L55.78913116455078,1.6488447189331055 C55.499656677246094,1.562002182006836 55.346649169921875,1.3759117126464844 55.346649169921875,1.2063617706298828 C55.346649169921875,0.9375629425048828 55.60304260253906,0.7845544815063477 56.04138946533203,0.7845544815063477 C56.45079040527344,0.7845544815063477 57.162071228027344,0.8507204055786133 57.61695861816406,0.9541044235229492 L58.48125457763672,1.1567363739013672 C58.617713928222656,1.1898193359375 58.700416564941406,1.1401958465576172 58.737648010253906,1.0037288665771484 L59.24628448486328,-0.7579345703125 C59.295921325683594,-0.8944015502929688 59.225608825683594,-0.9936504364013672 59.093284606933594,-1.0308685302734375 L58.24553680419922,-1.2335004806518555 C57.63349914550781,-1.3658323287963867 56.822967529296875,-1.5022993087768555 56.04138946533203,-1.5022993087768555 C53.9613037109375,-1.5022993087768555 52.741371154785156,-0.5056781768798828 52.741371154785156,1.2063617706298828 C52.741371154785156,2.4924583435058594 53.48573303222656,3.2409582138061523 55.127471923828125,3.613140106201172 L56.46733093261719,3.952239990234375 ZM64.11626434326172,-1.3162078857421875 L64.11626434326172,-3.9752445220947266 C64.11626434326172,-4.144793510437012 64.01702117919922,-4.215095520019531 63.86402130126953,-4.161334991455078 L61.62677764892578,-3.4169702529907227 C61.490318298339844,-3.36734676361084 61.440696716308594,-3.2805042266845703 61.440696716308594,-3.1647138595581055 L61.440696716308594,-1.3162078857421875 L60.55986785888672,-1.3162078857421875 C60.42339324951172,-1.3162078857421875 60.34069061279297,-1.2335004806518555 60.34069061279297,-1.0970344543457031 L60.34069061279297,0.8176374435424805 C60.34069061279297,0.9541044235229492 60.42339324951172,1.0368118286132812 60.55986785888672,1.0368118286132812 L61.440696716308594,1.0368118286132812 L61.440696716308594,4.121789932250977 C61.440696716308594,6.053003311157227 62.594459533691406,7.186090469360352 64.55875396728516,7.186090469360352 C65.0674057006836,7.186090469360352 65.60913848876953,7.049623489379883 66.01439666748047,6.780826568603516 C66.11779022216797,6.7105255126953125 66.13433074951172,6.594734191894531 66.08057403564453,6.474809646606445 L65.28658294677734,4.849613189697266 C65.22040557861328,4.713146209716797 65.11702728271484,4.696605682373047 64.9805679321289,4.74622917175293 C64.8440933227539,4.79998779296875 64.7117691040039,4.816530227661133 64.55875396728516,4.816530227661133 C64.28582000732422,4.816530227661133 64.11626434326172,4.560138702392578 64.11626434326172,4.121789932250977 L64.11626434326172,1.0368118286132812 L66.03093719482422,1.0368118286132812 C66.16741180419922,1.0368118286132812 66.25011444091797,0.9541044235229492 66.25011444091797,0.8176374435424805 L66.25011444091797,-1.0970344543457031 C66.25011444091797,-1.2335004806518555 66.16741180419922,-1.3162078857421875 66.03093719482422,-1.3162078857421875 L64.11626434326172,-1.3162078857421875 Z" transform="matrix(0.885560, 0.000000, 0.000000, 0.885560, 14.891209, 0.000000)" style="fill:#FFFFFF;" />
	</g>
	<g transform="matrix(0.057675, 0.000000, 0.000000, 0.057675, -67.000000, -1.763337)">
		<g transform="matrix(21.333334, 0.000000, 0.000000, 21.333334, -256.000000, -256.000000)">
			<path d="M12.35300064086914,13.0 L14.0,15.5M14.0,15.5 L15.647000312805176,18.0M14.0,15.5 L15.647000312805176,13.0M14.0,15.5 L12.35300064086914,18.0M17.70600128173828,13.0 L19.35300064086914,13.0M19.35300064086914,13.0 L21.0,13.0M19.35300064086914,13.0 L19.35300064086914,18.0M7.0,13.0 L8.647000312805176,13.0M8.647000312805176,13.0 L10.294000625610352,13.0M8.647000312805176,13.0 L8.647000312805176,18.0M15.0,22.0 L10.726999282836914,22.0 C7.466999053955078,22.0 5.834999084472656,22.0 4.702999114990234,21.20199966430664 C4.380848407745361,20.976083755493164 4.0928955078125,20.70496940612793 3.847999095916748,20.39699935913086 C3.0,19.33100128173828 3.0,17.797000885009766 3.0,14.72700023651123 L3.0,12.182000160217285 C3.0,9.218999862670898 3.0,7.736999988555908 3.4690001010894775,6.553999900817871 C4.2230000495910645,4.651000022888184 5.817000389099121,3.1509997844696045 7.8389997482299805,2.4409995079040527 C9.095000267028809,2.0 10.668000221252441,2.0 13.818000793457031,2.0 C15.61600112915039,2.0 16.516000747680664,2.0 17.23400115966797,2.252000093460083 C18.389001846313477,2.6579999923706055 19.30000114440918,3.515000104904175 19.731000900268555,4.6020002365112305 C20.0,5.278000354766846 20.0,6.125000476837158 20.0,7.818000316619873 L20.0,10.0" style="fill:none;stroke:#100C07;stroke-linecap:round;stroke-linejoin:round;stroke-width:1.5;" />
			<path d="M3.0,12.0 C3.0,11.116033554077148 3.351154327392578,10.268271446228027 3.976213216781616,9.643213272094727 C4.601271629333496,9.01815414428711 5.449033737182617,8.666999816894531 6.333000183105469,8.666999816894531 C6.999000072479248,8.666999816894531 7.784000396728516,8.782999992370605 8.430999755859375,8.609999656677246 C9.006363868713379,8.455157279968262 9.455644607543945,8.005495071411133 9.609999656677246,7.429999828338623 C9.782999992370605,6.7829999923706055 9.666999816894531,5.997999668121338 9.666999816894531,5.331999778747559 C9.66755199432373,3.4916253089904785 11.159626007080078,2.0 13.0,2.0" style="fill:none;stroke:#100C07;stroke-linecap:round;stroke-linejoin:round;stroke-width:1.5;" />
		</g>
	</g>
</svg>